<svg xmlns="http://www.w3.org/2000/svg" xmlns:xlink="http://www.w3.org/1999/xlink" width="68" height="69" viewBox="0 0 68 69">
    <defs>
        <path id="a" d="M0 0h100v100H0z"/>
        <linearGradient id="c" x1="50%" x2="50%" y1="-41.213%" y2="100%">
            <stop offset="0%" stop-color="#FFF354"/>
            <stop offset="100%" stop-color="#FEE42A"/>
        </linearGradient>
        <linearGradient id="d" x1="50%" x2="50%" y1="0%" y2="100%">
            <stop offset="0%" stop-color="#FFE72D"/>
            <stop offset="100%" stop-color="#FECB14"/>
        </linearGradient>
    </defs>
    <g fill="none" fill-rule="evenodd" transform="translate(-16 -15)">
        <mask id="b" fill="#fff">
            <use xlink:href="#a"/>
        </mask>
        <g mask="url(#b)">
            <path fill="#FFF" fill-rule="nonzero" d="M50.79 16.047c-10.565 0-19.191 8.625-19.191 19.19 0 10.566 8.626 19.191 19.19 19.191 10.566 0 19.192-8.625 19.192-19.19.011-10.566-8.615-19.191-19.191-19.191z"/>
            <path fill="url(#c)" fill-rule="nonzero" d="M34.71 40.116c-11.09 0-20.059-8.96-20.059-20.063C14.651 8.95 23.621 0 34.71 0 45.8 0 54.767 8.96 54.767 20.064c0 11.103-8.958 20.052-20.058 20.052zm.087-37.849a17.85 17.85 0 0 0-17.878 17.878 17.85 17.85 0 0 0 17.878 17.878 17.849 17.849 0 0 0 17.877-17.877c0-9.897-7.97-17.879-17.877-17.879z" transform="translate(16.25 15)"/>
            <path d="M33.517 17.616h34.884V52.5H33.517z"/>
            <path fill="url(#d)" fill-rule="nonzero" d="M17.427 2.907c-8.023 0-14.52 6.512-14.52 14.535s6.497 14.535 14.52 14.535c8.038 0 14.55-6.512 14.55-14.535S25.465 2.907 17.427 2.907zm6.163 23.256l-6.148-3.707-6.148 3.707 1.628-6.991L7.5 14.477l7.151-.61 2.79-6.6 2.792 6.585 7.15.61-5.42 4.695 1.627 7.006z" transform="translate(33.517 17.616)"/>
            <path fill="#FFF" fill-rule="nonzero" d="M17.427 54.464h10.238v23.611H17.427z"/>
            <g fill="#BDBDBD" fill-rule="nonzero">
                <path d="M21.418 59.212h2.154v2.154h-2.154zM21.418 65.244h2.154v2.154h-2.154zM21.418 71.288h2.154v2.154h-2.154z"/>
                <path d="M83.197 64.274c-1.082-2.266-3.664-3.337-5.93-2.48l-14.659 4.96c.113-.326.113-.755.113-1.183a5.055 5.055 0 0 0-5.063-5.063H46.766c-.327 0-.755-.113-1.083-.214l-7.013-3.665-.113-.112a6.143 6.143 0 0 0-1.939-.327h-7.87v-2.91H16.355v25.765h12.403V76.78h2.695l20.059 6.686c.755.214 1.51.429 2.368.429 1.184 0 2.368-.327 3.45-.869l23.825-12.617c2.154-1.06 3.124-3.766 2.041-6.134zM26.594 76.993v.113h-8.085v-21.57h8.085v21.457zm53.48-8.299L56.248 81.2a5.716 5.716 0 0 1-4.205.327l-20.375-6.788h-3.022V58.456h7.87c.429 0 .756.113 1.184.214l7.014 3.665.112.112a5.076 5.076 0 0 0 1.838.327h10.892a2.902 2.902 0 0 1 2.91 2.91c0 .857-.43 1.612-.97 2.153l-2.053.756h-8.84a4.093 4.093 0 0 0-4.093 4.093h2.154c0-1.083.857-1.94 1.94-1.94h8.952a4.73 4.73 0 0 0 2.909-.97l17.364-5.93c1.297-.429 2.695.112 3.237 1.398a2.439 2.439 0 0 1-.992 3.45z"/>
            </g>
        </g>
    </g>
</svg>
