<?xml version="1.0" encoding="UTF-8"?>
<svg width="52px" height="51px" viewBox="0 0 52 51" version="1.1" xmlns="http://www.w3.org/2000/svg" xmlns:xlink="http://www.w3.org/1999/xlink">
    <!-- Generator: Sketch 48.2 (47327) - http://www.bohemiancoding.com/sketch -->
    <title>Give Feedback@0.5x</title>
    <desc>Created with Sketch.</desc>
    <defs></defs>
    <g id="Loyalty_Home-3" stroke="none" stroke-width="1" fill="none" fill-rule="evenodd" transform="translate(-1019.000000, -804.000000)">
        <g id="First-Time" transform="translate(990.000000, 773.000000)" fill-rule="nonzero">
            <g id="Give-Feedback" transform="translate(29.000000, 31.000000)">
                <path d="M6.8699187,40.4687886 L10.3894309,40.4687886 L10.3894309,49.7484634 C10.3894309,50.1712276 10.6430894,50.5411463 11.0235772,50.710252 C11.1609756,50.7630976 11.298374,50.7948049 11.4357724,50.7948049 C11.7,50.7948049 11.9642276,50.6891138 12.1650407,50.4988699 L22.6390244,40.4687886 L42.2764228,40.4687886 C45.0666667,40.4687886 47.6349593,38.7143171 48.6707317,36.103748 C48.8821138,35.5647236 48.6178862,34.9622846 48.0788618,34.7509024 C47.5398374,34.5395203 46.9373984,34.803748 46.7260163,35.3427724 C46.0073171,37.1606585 44.2211382,38.3761057 42.2764228,38.3761057 L22.2162602,38.3761057 C21.9414634,38.3761057 21.6878049,38.4817967 21.497561,38.6720407 L12.4926829,47.2964309 L12.4926829,39.4330163 C12.4926829,38.8517154 12.0276423,38.3866748 11.4463415,38.3866748 L6.8699187,38.3866748 C4.23821138,38.3866748 2.09268293,36.2411463 2.09268293,33.609439 L2.09268293,11.9956179 C2.09268293,9.36391057 4.23821138,7.21838211 6.8699187,7.21838211 L28.5788618,7.21838211 C29.1601626,7.21838211 29.6252033,6.75334146 29.6252033,6.17204065 C29.6252033,5.59073984 29.1601626,5.12569919 28.5788618,5.12569919 L6.8699187,5.12569919 C3.07560976,5.12569919 0,8.21187805 0,11.9956179 L0,33.5988699 C0,37.3931789 3.07560976,40.4687886 6.8699187,40.4687886 Z" id="Shape" fill="#BDBDBD"></path>
                <path d="M27.0357724,13.1265122 C26.6552846,12.6297642 26.0634146,12.302122 25.3869919,12.302122 L20.398374,12.302122 C19.2569106,12.302122 18.3373984,13.2322033 18.3373984,14.3630976 L18.3373984,29.5931789 C18.3373984,30.7346423 19.2674797,31.6541545 20.398374,31.6541545 L25.3869919,31.6541545 C25.9260163,31.6541545 26.4121951,31.4427724 26.7821138,31.104561 C27.6593496,31.9712276 28.8642276,32.5208211 30.195935,32.5208211 L44.3373984,32.5208211 C47.5926829,32.5208211 49.6642276,30.808626 50.0341463,27.8387073 L51.9365854,15.7582195 C51.9471545,15.705374 51.9471545,15.6525285 51.9471545,15.5996829 C51.9471545,12.9362683 49.7804878,10.7696016 47.1170732,10.7696016 L40.1943089,10.7696016 L40.1943089,5.83382927 C40.1943089,3.58260976 39.5284553,1.95496748 38.2178862,0.993178862 C36.1463415,-0.528772358 33.3138211,0.337894309 33.1869919,0.369601626 C32.7536585,0.507 32.4577236,0.908626016 32.4577236,1.36309756 L32.4577236,7.14439837 C32.4577236,11.5305772 27.3317073,13.0313902 27.1203252,13.0948049 C27.0780488,13.105374 27.0569106,13.1159431 27.0357724,13.1265122 Z M25.3552846,29.5720407 L20.4195122,29.5720407 L20.4195122,14.3948049 L25.3552846,14.3948049 L25.3552846,29.5720407 Z M27.4479675,15.1452114 C27.5219512,15.1452114 27.595935,15.1346423 27.6699187,15.1135041 C27.9552846,15.0395203 34.5398374,13.1265122 34.5398374,7.14439837 L34.5398374,2.21919512 C35.2162602,2.13464228 36.2308943,2.13464228 36.9707317,2.68423577 C37.7105691,3.23382927 38.0910569,4.29073984 38.0910569,5.83382927 L38.0910569,11.805374 C38.0910569,12.3866748 38.5560976,12.8517154 39.1373984,12.8517154 L47.1065041,12.8517154 C48.596748,12.8517154 49.801626,14.0354553 49.8439024,15.5151301 L47.9520325,27.5322033 C47.9520325,27.5427724 47.9520325,27.5533415 47.9520325,27.5639106 C47.7195122,29.4663496 46.504065,30.4281382 44.3268293,30.4281382 L30.195935,30.4281382 C28.6845528,30.4281382 27.4585366,29.202122 27.4585366,27.6907398 L27.4585366,15.1452114 L27.4479675,15.1452114 Z" id="Shape" fill="#FFD81F"></path>
            </g>
        </g>
    </g>
</svg>