<svg xmlns="http://www.w3.org/2000/svg" width="24" height="24" viewBox="0 0 24 24">
    <defs>
        <linearGradient id="a" x1="50%" x2="50%" y1="0%" y2="100%">
            <stop offset="0%" stop-color="#DFDFDF"/>
            <stop offset="100%" stop-color="#BCBCBC"/>
        </linearGradient>
    </defs>
    <g fill="none" fill-rule="evenodd">
        <path fill="url(#a)" fill-rule="nonzero" d="M11.832 23.24A11.61 11.61 0 0 1 .212 11.617 11.604 11.604 0 0 1 11.832 0a11.61 11.61 0 0 1 11.62 11.623 11.6 11.6 0 0 1-11.62 11.617zm.05-21.926A10.34 10.34 0 0 0 1.525 11.67a10.34 10.34 0 0 0 10.357 10.357A10.34 10.34 0 0 0 22.24 11.671 10.336 10.336 0 0 0 11.882 1.314z"/>
        <path d="M1.727 1.516h20.209v20.208H1.727z"/>
        <path fill="url(#a)" fill-rule="nonzero" d="M10.096 1.684c-4.648 0-8.412 3.772-8.412 8.42s3.764 8.42 8.412 8.42c4.656 0 8.428-3.772 8.428-8.42s-3.772-8.42-8.428-8.42zm3.57 13.472l-3.562-2.147-3.561 2.147.943-4.05-3.141-2.72 4.143-.353 1.616-3.823 1.617 3.814 4.143.354-3.141 2.72.943 4.058z" transform="translate(1.727 1.516)"/>
    </g>
</svg>
